<svg width="140" height="140" viewBox="0 0 140 140" fill="none" xmlns="http://www.w3.org/2000/svg">
<path d="M47.3283 51.2396C47.6057 51.9331 48.1744 52.5018 49.0067 52.5018H53.2096V89.3293C53.2096 90.3142 54.0557 91.1464 55.0267 91.1464C56.2889 91.1464 100.801 91.1464 102.355 91.1464C103.339 91.1464 104.172 90.3003 104.172 89.3293V52.5018C104.172 52.5018 108.513 52.5018 108.375 52.5018C109.359 52.5018 110.192 51.6557 110.192 50.6847C110.192 49.9912 109.775 49.4225 109.345 49.1451L79.3841 30.1002C78.8293 29.6841 78.1219 29.6841 77.4283 30.1002L48.0218 49.2838C47.467 49.6999 47.037 50.546 47.3283 51.2396ZM56.7051 85.82H70.7009V87.6371H56.7051V85.82ZM74.2103 87.4984V73.5025H83.0322V87.4984H74.2103ZM86.5277 87.4984V85.6813H100.524V87.4984H86.5277ZM100.524 82.3245H86.5277V71.8241C86.5277 70.8393 85.6816 70.007 84.7106 70.007H72.3932C71.4083 70.007 70.5761 70.8532 70.5761 71.8241V82.3245H56.5663V52.5018H100.385V82.3245H100.524ZM78.3993 33.5957L102.202 48.9925C91.1467 48.9925 65.9431 48.9925 54.8741 48.9925L78.3993 33.5957Z" fill="url(#paint0_linear_3570_3394)"/>
<path d="M62.0178 66.4977H70.8397C71.8246 66.4977 72.6568 65.6516 72.6568 64.6806V57.6757C72.6568 56.6909 71.8107 55.8586 70.8397 55.8586H62.0178C61.0329 55.8586 60.2007 56.7048 60.2007 57.6757V64.6806C60.2007 65.6654 61.0468 66.4977 62.0178 66.4977ZM63.71 59.5067H69.0365V63.0022H63.71V59.5067Z" fill="url(#paint1_linear_3570_3394)"/>
<path d="M86.5276 66.4977H95.2108C96.1957 66.4977 97.0279 65.6516 97.0279 64.6806V57.6757C97.0279 56.6909 96.1818 55.8586 95.2108 55.8586H86.3889C85.404 55.8586 84.5718 56.7048 84.5718 57.6757V64.6806C84.7105 65.6654 85.5427 66.4977 86.5276 66.4977ZM88.206 59.5067H93.5324V63.0022H88.206V59.5067Z" fill="url(#paint2_linear_3570_3394)"/>
<path d="M110.33 64.8191C109.345 64.8191 108.513 65.6653 108.513 66.6362V94.6418H43.8188V40.323C43.8188 39.3381 42.9727 38.5059 42.0017 38.5059H29.6843C28.6994 38.5059 27.8672 39.352 27.8672 40.323V108.651C27.8672 109.636 28.7133 110.469 29.6843 110.469C33.3185 110.469 105.85 110.469 110.192 110.469C111.176 110.469 112.009 109.622 112.009 108.651C112.009 106.557 112.009 68.4672 112.009 66.6501C112.009 65.5266 111.163 64.8191 110.33 64.8191ZM31.5014 105.003H34.9969C35.9817 105.003 36.814 104.157 36.814 103.186C36.814 102.201 35.9678 101.369 34.9969 101.369H31.5014V99.5521H34.9969C35.9817 99.5521 36.814 98.706 36.814 97.735C36.814 96.7502 35.9678 95.9179 34.9969 95.9179H31.5014V94.1008H34.9969C35.9817 94.1008 36.814 93.2547 36.814 92.2837C36.814 91.2989 35.9678 90.4666 34.9969 90.4666H31.5014V88.6495H34.9969C35.9817 88.6495 36.814 87.8034 36.814 86.8324C36.814 85.8476 35.9678 85.0153 34.9969 85.0153H31.5014V84.0305H34.9969C35.9817 84.0305 36.814 83.1843 36.814 82.2134C36.814 81.2285 35.9678 80.3963 34.9969 80.3963H31.5014V78.5792H34.9969C35.9817 78.5792 36.814 77.733 36.814 76.7621C36.814 75.7772 35.9678 74.945 34.9969 74.945H31.5014V73.1279H34.9969C35.9817 73.1279 36.814 72.2817 36.814 71.3108C36.814 70.3259 35.9678 70.0485 34.9969 70.0485H31.5014V68.2314H34.9969C35.9817 68.2314 36.814 67.3853 36.814 66.4143C36.814 65.4295 35.9678 64.5972 34.9969 64.5972H31.5014V63.0575H34.9969C35.9817 63.0575 36.814 62.2114 36.814 61.2404C36.814 60.2556 35.9678 59.4233 34.9969 59.4233H31.5014V57.6062H34.9969C35.9817 57.6062 36.814 56.7601 36.814 55.7891C36.814 54.8043 35.9678 53.972 34.9969 53.972H31.5014V52.1549H34.9969C35.9817 52.1549 36.814 51.3088 36.814 50.3378C36.814 49.353 35.9678 48.5207 34.9969 48.5207H31.5014V46.7036H34.9969C35.9817 46.7036 36.814 45.8575 36.814 44.8865C36.814 43.9017 35.9678 43.0694 34.9969 43.0694H31.5014V42.0846H40.3233C40.3233 45.1639 40.3233 103.824 40.3233 106.904H31.5014V105.003ZM108.499 106.821H43.8188V97.9986H45.6359V101.494C45.6359 102.479 46.4821 103.311 47.453 103.311C48.4379 103.311 49.2701 102.465 49.2701 101.494V97.9986H51.0872V101.494C51.0872 102.479 51.9334 103.311 52.9043 103.311C53.8892 103.311 54.7214 102.465 54.7214 101.494V97.9986H55.9837V101.494C55.9837 102.479 56.8298 103.311 57.8008 103.311C58.7856 103.311 59.6179 102.465 59.6179 101.494V97.9986H61.435V101.494C61.435 102.479 62.2811 103.311 63.2521 103.311C64.2369 103.311 65.0692 102.465 65.0692 101.494V97.9986H66.8863V101.494C66.8863 102.479 67.7324 103.311 68.7034 103.311C69.6882 103.311 70.5205 102.465 70.5205 101.494V97.9986H72.3376V101.494C72.3376 102.479 73.1837 103.311 74.1547 103.311C75.1395 103.311 75.9718 102.465 75.9718 101.494V97.9986H76.9566V101.494C76.9566 102.479 77.8028 103.311 78.7738 103.311C79.7586 103.311 80.5909 102.465 80.5909 101.494V97.9986H82.408V101.494C82.408 102.479 83.2541 103.311 84.2251 103.311C85.2099 103.311 86.0422 102.465 86.0422 101.494V97.9986H87.8593V101.494C87.8593 102.479 88.7054 103.311 89.6764 103.311C90.6612 103.311 91.4935 102.465 91.4935 101.494V97.9986H93.3106V101.494C93.3106 102.479 94.1567 103.311 95.1277 103.311C96.1125 103.311 96.9448 102.465 96.9448 101.494V97.9986H97.9296V101.494C97.9296 102.479 98.7757 103.311 99.7467 103.311C100.732 103.311 101.564 102.465 101.564 101.494V97.9986H103.381V101.494C103.381 102.479 104.227 103.311 105.198 103.311C106.183 103.311 107.015 102.465 107.015 101.494V97.9986H108.832V106.821H108.499Z" fill="url(#paint3_linear_3570_3394)"/>
<path d="M47.328 84.0027C48.3128 84.0027 49.1451 83.1566 49.1451 82.1856V59.5066C49.1451 58.5217 48.299 57.6895 47.328 57.6895C46.3432 57.6895 45.5109 58.5356 45.5109 59.5066V82.3243C45.497 83.1705 46.3432 84.0027 47.328 84.0027Z" fill="url(#paint4_linear_3570_3394)"/>
<path d="M103.326 31.501H96.3208V34.9965H103.326V31.501Z" fill="url(#paint5_linear_3570_3394)"/>
<path d="M108.499 31.501H105.004V34.9965H108.499V31.501Z" fill="url(#paint6_linear_3570_3394)"/>
<path d="M52.6546 36.8137H47.3281V40.3092H52.6546V36.8137Z" fill="url(#paint7_linear_3570_3394)"/>
<path d="M57.8148 36.8137H54.3193V40.3092H57.8148V36.8137Z" fill="url(#paint8_linear_3570_3394)"/>
<path d="M107.667 45.497C110.053 45.497 112.008 43.5412 112.008 41.1553C112.008 38.7695 110.053 36.8137 107.667 36.8137C105.281 36.8137 103.325 38.7695 103.325 41.1553C103.325 43.5412 105.281 45.497 107.667 45.497ZM107.667 40.3231C108.083 40.3231 108.513 40.7392 108.513 41.1692C108.513 41.5853 108.097 42.0153 107.667 42.0153C107.251 42.0153 106.821 41.5992 106.821 41.1692C106.821 40.7392 107.112 40.3231 107.667 40.3231Z" fill="url(#paint9_linear_3570_3394)"/>
<path d="M39.3387 36.8137C41.7245 36.8137 43.6803 34.8578 43.6803 32.472C43.6803 30.0862 41.7245 27.9917 39.3387 27.9917C36.9529 27.9917 34.9971 29.9475 34.9971 32.3333C34.9971 34.7191 36.9668 36.8137 39.3387 36.8137ZM39.3387 31.5011C39.7548 31.5011 40.1848 31.9172 40.1848 32.3472C40.1848 32.7772 39.7687 33.1933 39.3387 33.1933C38.9226 33.1933 38.4926 32.7772 38.4926 32.3472C38.4926 31.9172 38.9226 31.5011 39.3387 31.5011Z" fill="url(#paint10_linear_3570_3394)"/>
<path d="M61.3239 31.501C62.3226 31.501 63.141 32.3194 63.141 33.3181C63.141 34.3307 62.3226 35.1352 61.3239 35.1352C60.3252 35.1352 59.5068 34.3168 59.5068 33.3181C59.5068 32.3194 60.3252 31.501 61.3239 31.501Z" fill="url(#paint11_linear_3570_3394)"/>
<path d="M47.328 85.6812C48.3267 85.6812 49.1451 86.4995 49.1451 87.4983C49.1451 88.497 48.3267 89.3154 47.328 89.3154C46.3293 89.3154 45.5109 88.497 45.5109 87.4983C45.497 86.4995 46.3154 85.6812 47.328 85.6812Z" fill="url(#paint12_linear_3570_3394)"/>
<defs>
<linearGradient id="paint0_linear_3570_3394" x1="81.2687" y1="26.1146" x2="80.0286" y2="95.9656" gradientUnits="userSpaceOnUse">
<stop stop-color="#00FF1A"/>
<stop offset="1" stop-color="#37C245"/>
</linearGradient>
<linearGradient id="paint1_linear_3570_3394" x1="66.9344" y1="55.2217" x2="66.7459" y2="67.3342" gradientUnits="userSpaceOnUse">
<stop stop-color="#00FF1A"/>
<stop offset="1" stop-color="#37C245"/>
</linearGradient>
<linearGradient id="paint2_linear_3570_3394" x1="91.3055" y1="55.2217" x2="91.117" y2="67.3342" gradientUnits="userSpaceOnUse">
<stop stop-color="#00FF1A"/>
<stop offset="1" stop-color="#37C245"/>
</linearGradient>
<linearGradient id="paint3_linear_3570_3394" x1="73.3536" y1="34.1975" x2="72.0771" y2="116.127" gradientUnits="userSpaceOnUse">
<stop stop-color="#00FF1A"/>
<stop offset="1" stop-color="#37C245"/>
</linearGradient>
<linearGradient id="paint4_linear_3570_3394" x1="47.4755" y1="56.1141" x2="43.5908" y2="85.5665" gradientUnits="userSpaceOnUse">
<stop stop-color="#00FF1A"/>
<stop offset="1" stop-color="#37C245"/>
</linearGradient>
<linearGradient id="paint5_linear_3570_3394" x1="100.108" y1="31.2917" x2="100.071" y2="35.2719" gradientUnits="userSpaceOnUse">
<stop stop-color="#00FF1A"/>
<stop offset="1" stop-color="#37C245"/>
</linearGradient>
<linearGradient id="paint6_linear_3570_3394" x1="106.894" y1="31.2917" x2="106.821" y2="35.2709" gradientUnits="userSpaceOnUse">
<stop stop-color="#00FF1A"/>
<stop offset="1" stop-color="#37C245"/>
</linearGradient>
<linearGradient id="paint7_linear_3570_3394" x1="50.2076" y1="36.6045" x2="50.16" y2="40.5844" gradientUnits="userSpaceOnUse">
<stop stop-color="#00FF1A"/>
<stop offset="1" stop-color="#37C245"/>
</linearGradient>
<linearGradient id="paint8_linear_3570_3394" x1="56.209" y1="36.6045" x2="56.1365" y2="40.5837" gradientUnits="userSpaceOnUse">
<stop stop-color="#00FF1A"/>
<stop offset="1" stop-color="#37C245"/>
</linearGradient>
<linearGradient id="paint9_linear_3570_3394" x1="108.019" y1="36.2939" x2="107.839" y2="46.1788" gradientUnits="userSpaceOnUse">
<stop stop-color="#00FF1A"/>
<stop offset="1" stop-color="#37C245"/>
</linearGradient>
<linearGradient id="paint10_linear_3570_3394" x1="39.6912" y1="27.4635" x2="39.5053" y2="37.5063" gradientUnits="userSpaceOnUse">
<stop stop-color="#00FF1A"/>
<stop offset="1" stop-color="#37C245"/>
</linearGradient>
<linearGradient id="paint11_linear_3570_3394" x1="61.4715" y1="31.2834" x2="61.3961" y2="35.4205" gradientUnits="userSpaceOnUse">
<stop stop-color="#00FF1A"/>
<stop offset="1" stop-color="#37C245"/>
</linearGradient>
<linearGradient id="paint12_linear_3570_3394" x1="47.4755" y1="85.4636" x2="47.4001" y2="89.6007" gradientUnits="userSpaceOnUse">
<stop stop-color="#00FF1A"/>
<stop offset="1" stop-color="#37C245"/>
</linearGradient>
</defs>
</svg>
