<svg width="" height="" viewBox="0 0 27 27" fill="none" xmlns="http://www.w3.org/2000/svg">
<path d="M21.6339 17.1675L18.7764 16.8412C18.4404 16.8018 18.0999 16.839 17.7803 16.95C17.4607 17.0611 17.1705 17.2431 16.9314 17.4825L14.8614 19.5525C11.6678 17.9282 9.07192 15.3324 7.44767 12.1387L9.52892 10.0575C10.0127 9.57373 10.2489 8.89873 10.1702 8.21248L9.84392 5.37748C9.78014 4.82868 9.51676 4.3225 9.10393 3.95531C8.69111 3.58812 8.15766 3.38558 7.60517 3.38623H5.65892C4.38767 3.38623 3.33017 4.44373 3.40892 5.71498C4.00517 15.3225 11.6889 22.995 21.2852 23.5912C22.5564 23.67 23.6139 22.6125 23.6139 21.3412V19.395C23.6252 18.2587 22.7702 17.3025 21.6339 17.1675Z" fill="white"/>
</svg>
