<svg width="" height="" viewBox="0 0 38 39" fill="none" xmlns="http://www.w3.org/2000/svg">
<g clip-path="url(#clip0_3627_8948)">
<path d="M18.9998 3.90527C10.2598 3.90527 3.1665 10.9986 3.1665 19.7386C3.1665 28.4786 10.2598 35.5719 18.9998 35.5719C27.7398 35.5719 34.8332 28.4786 34.8332 19.7386C34.8332 10.9986 27.7398 3.90527 18.9998 3.90527ZM26.3465 14.6719C26.109 17.1736 25.0798 23.2536 24.5573 26.0561C24.3357 27.2436 23.8923 27.6394 23.4807 27.6869C22.5623 27.7661 21.8657 27.0853 20.979 26.4994C19.5857 25.5811 18.794 25.0111 17.4482 24.1244C15.8807 23.0953 16.894 22.5253 17.7965 21.6069C18.034 21.3694 22.0873 17.6803 22.1665 17.3478C22.1775 17.2974 22.176 17.2451 22.1622 17.1955C22.1484 17.1458 22.1227 17.1002 22.0873 17.0628C21.9923 16.9836 21.8657 17.0153 21.7548 17.0311C21.6123 17.0628 19.3957 18.5353 15.0732 21.4486C14.4398 21.8761 13.8698 22.0978 13.3632 22.0819C12.7932 22.0661 11.7165 21.7653 10.909 21.4961C9.9115 21.1794 9.13567 21.0053 9.199 20.4511C9.23067 20.1661 9.6265 19.8811 10.3707 19.5803C14.994 17.5694 18.0657 16.2394 19.6015 15.6061C24.0032 13.7694 24.9057 13.4528 25.5073 13.4528C25.634 13.4528 25.9348 13.4844 26.1248 13.6428C26.2832 13.7694 26.3307 13.9436 26.3465 14.0703C26.3307 14.1653 26.3623 14.4503 26.3465 14.6719Z" fill="#AAAAAA"/>
</g>
<defs>
<clipPath id="clip0_3627_8948">
<rect width="38" height="38" fill="white" transform="translate(0 0.73877)"/>
</clipPath>
</defs>
</svg>
