<svg width="" height="" viewBox="0 0 27 27" fill="none" xmlns="http://www.w3.org/2000/svg">
<g clip-path="url(#clip0_3710_8988)">
<path d="M13.5 27C13.5 27 23.625 17.4049 23.625 10.125C23.625 7.43968 22.5583 4.86435 20.6595 2.96554C18.7606 1.06674 16.1853 0 13.5 0C10.8147 0 8.23935 1.06674 6.34054 2.96554C4.44174 4.86435 3.375 7.43968 3.375 10.125C3.375 17.4049 13.5 27 13.5 27ZM13.5 15.1875C12.1573 15.1875 10.8697 14.6541 9.92027 13.7047C8.97087 12.7553 8.4375 11.4677 8.4375 10.125C8.4375 8.78234 8.97087 7.49468 9.92027 6.54527C10.8697 5.59587 12.1573 5.0625 13.5 5.0625C14.8427 5.0625 16.1303 5.59587 17.0797 6.54527C18.0291 7.49468 18.5625 8.78234 18.5625 10.125C18.5625 11.4677 18.0291 12.7553 17.0797 13.7047C16.1303 14.6541 14.8427 15.1875 13.5 15.1875Z" fill="white"/>
</g>
<defs>
<clipPath id="clip0_3710_8988">
<rect width="27" height="27" fill="white"/>
</clipPath>
</defs>
</svg>
