<svg width="" height="" viewBox="0 0 38 39" fill="none" xmlns="http://www.w3.org/2000/svg">
<g clip-path="url(#clip0_3627_8942)">
<path fill-rule="evenodd" clip-rule="evenodd" d="M33.8438 9.08697C33.8438 6.77183 31.9669 4.89502 29.6518 4.89502H8.3482C6.03306 4.89502 4.15625 6.77183 4.15625 9.08697V30.3906C4.15625 32.7058 6.03306 34.5825 8.3482 34.5825H29.6518C31.9669 34.5825 33.8438 32.7058 33.8438 30.3906V9.08697ZM28.7508 17.8431C26.8354 17.8645 25.0506 17.2854 23.4836 16.213V23.7415C23.4836 27.0875 21.1932 29.9618 17.9544 30.7124C13.5359 31.7205 9.79543 28.5247 9.32366 24.7068C8.83032 20.8889 11.2653 17.5428 14.9974 16.7921C15.7266 16.642 16.8235 16.642 17.3894 16.7707V20.803C17.2153 20.7602 17.0522 20.7173 16.8806 20.6959C15.4221 20.4384 14.0095 21.1677 13.4303 22.4975C12.8512 23.8274 13.2388 25.3717 14.4185 26.2727C15.4051 27.0448 16.4998 27.1519 17.6151 26.6371C18.7305 26.1439 19.3299 25.2431 19.4586 24.0205C19.48 23.849 19.4788 23.6559 19.4788 23.4628V8.98469C19.4788 8.5772 19.482 8.59497 19.8895 8.59497H23.0854C23.3214 8.59497 23.4073 8.62893 23.4287 8.90792C23.6002 11.396 25.4892 13.5149 27.9129 13.8367C28.1703 13.8796 28.4461 13.8966 28.7508 13.918V17.8431Z" fill="#AAAAAA"/>
</g>
<defs>
<clipPath id="clip0_3627_8942">
<rect width="38" height="38" fill="white" transform="translate(0 0.73877)"/>
</clipPath>
</defs>
</svg>
