<svg width="" height="" viewBox="0 0 38 39" fill="none" xmlns="http://www.w3.org/2000/svg">
<g clip-path="url(#clip0_3627_8939)">
<path d="M20.6274 3.90527C22.4087 3.91002 23.3128 3.91952 24.0934 3.94169L24.4005 3.95277C24.7552 3.96544 25.1051 3.98127 25.5279 4.00027C27.2125 4.07944 28.362 4.34544 29.3706 4.73652C30.4156 5.13869 31.2959 5.68336 32.1763 6.56211C32.9814 7.35361 33.6044 8.31104 34.0019 9.36777C34.3929 10.3764 34.6589 11.5259 34.7381 13.2121C34.7571 13.6333 34.7729 13.9832 34.7856 14.3394L34.7951 14.6466C34.8189 15.4256 34.8284 16.3297 34.8315 18.1109L34.8331 19.2921V21.3663C34.837 22.5212 34.8249 23.6761 34.7967 24.8306L34.7872 25.1378C34.7745 25.494 34.7587 25.8439 34.7397 26.2651C34.6605 27.9514 34.3914 29.0993 34.0019 30.1094C33.6055 31.1668 32.9824 32.1244 32.1763 32.9151C31.3846 33.7199 30.4272 34.3429 29.3706 34.7407C28.362 35.1318 27.2125 35.3978 25.5279 35.4769C25.1522 35.4946 24.7764 35.5105 24.4005 35.5244L24.0934 35.5339C23.3128 35.5561 22.4087 35.5672 20.6274 35.5704L19.4463 35.5719H17.3737C16.2183 35.5759 15.0629 35.5638 13.9078 35.5355L13.6006 35.526C13.2247 35.5118 12.849 35.4954 12.4733 35.4769C10.7886 35.3978 9.63911 35.1318 8.62894 34.7407C7.57233 34.3439 6.61528 33.7208 5.82486 32.9151C5.01901 32.1239 4.39546 31.1664 3.99769 30.1094C3.60661 29.1009 3.34061 27.9514 3.26144 26.2651C3.2438 25.8894 3.22797 25.5136 3.21394 25.1378L3.20602 24.8306C3.17685 23.6761 3.16365 22.5212 3.16644 21.3663V18.1109C3.16202 16.9561 3.17363 15.8012 3.20127 14.6466L3.21236 14.3394C3.22502 13.9832 3.24086 13.6333 3.25986 13.2121C3.33902 11.5259 3.60502 10.3779 3.99611 9.36777C4.3937 8.30996 5.0185 7.35223 5.82644 6.56211C6.61667 5.75694 7.57309 5.13392 8.62894 4.73652C9.63911 4.34544 10.787 4.07944 12.4733 4.00027C12.8944 3.98127 13.2459 3.96544 13.6006 3.95277L13.9078 3.94327C15.0623 3.91514 16.2172 3.903 17.3721 3.90686L20.6274 3.90527ZM18.9998 11.8219C16.9001 11.8219 14.8865 12.656 13.4018 14.1407C11.9172 15.6253 11.0831 17.639 11.0831 19.7386C11.0831 21.8382 11.9172 23.8519 13.4018 25.3365C14.8865 26.8212 16.9001 27.6553 18.9998 27.6553C21.0994 27.6553 23.113 26.8212 24.5977 25.3365C26.0824 23.8519 26.9164 21.8382 26.9164 19.7386C26.9164 17.639 26.0824 15.6253 24.5977 14.1407C23.113 12.656 21.0994 11.8219 18.9998 11.8219ZM18.9998 14.9886C19.6236 14.9885 20.2412 15.1113 20.8176 15.3499C21.3939 15.5885 21.9176 15.9383 22.3588 16.3793C22.7999 16.8203 23.1499 17.3439 23.3887 17.9201C23.6275 18.4964 23.7505 19.114 23.7506 19.7378C23.7507 20.3616 23.6279 20.9793 23.3893 21.5556C23.1507 22.132 22.8009 22.6557 22.3599 23.0968C21.9189 23.538 21.3953 23.8879 20.819 24.1267C20.2428 24.3655 19.6251 24.4885 19.0014 24.4886C17.7416 24.4886 16.5334 23.9882 15.6426 23.0974C14.7518 22.2066 14.2514 20.9984 14.2514 19.7386C14.2514 18.4788 14.7518 17.2706 15.6426 16.3799C16.5334 15.4891 17.7416 14.9886 19.0014 14.9886M27.3139 9.44694C26.7889 9.44694 26.2855 9.65546 25.9144 10.0266C25.5432 10.3978 25.3347 10.9012 25.3347 11.4261C25.3347 11.951 25.5432 12.4544 25.9144 12.8256C26.2855 13.1968 26.7889 13.4053 27.3139 13.4053C27.8388 13.4053 28.3422 13.1968 28.7133 12.8256C29.0845 12.4544 29.293 11.951 29.293 11.4261C29.293 10.9012 29.0845 10.3978 28.7133 10.0266C28.3422 9.65546 27.8388 9.44694 27.3139 9.44694Z" fill="#AAAAAA"/>
</g>
<defs>
<clipPath id="clip0_3627_8939">
<rect width="38" height="38" fill="white" transform="translate(0 0.73877)"/>
</clipPath>
</defs>
</svg>
