<svg width="" height="" viewBox="0 0 38 39" fill="none" xmlns="http://www.w3.org/2000/svg">
<g clip-path="url(#clip0_3627_8951)">
<path d="M15.8332 24.4886L24.0507 19.7386L15.8332 14.9886V24.4886ZM34.1365 12.0911C34.3423 12.8353 34.4848 13.8328 34.5798 15.0994C34.6907 16.3661 34.7382 17.4586 34.7382 18.4086L34.8332 19.7386C34.8332 23.2061 34.5798 25.7553 34.1365 27.3861C33.7407 28.8111 32.8223 29.7294 31.3973 30.1253C30.6532 30.3311 29.2915 30.4736 27.2015 30.5686C25.1432 30.6794 23.259 30.7269 21.5173 30.7269L18.9998 30.8219C12.3657 30.8219 8.23317 30.5686 6.60234 30.1253C5.17734 29.7294 4.259 28.8111 3.86317 27.3861C3.65734 26.6419 3.51484 25.6444 3.41984 24.3778C3.309 23.1111 3.2615 22.0186 3.2615 21.0686L3.1665 19.7386C3.1665 16.2711 3.41984 13.7219 3.86317 12.0911C4.259 10.6661 5.17734 9.74777 6.60234 9.35194C7.3465 9.14611 8.70817 9.00361 10.7982 8.90861C12.8565 8.79777 14.7407 8.75027 16.4823 8.75027L18.9998 8.65527C25.634 8.65527 29.7665 8.90861 31.3973 9.35194C32.8223 9.74777 33.7407 10.6661 34.1365 12.0911Z" fill="#AAAAAA"/>
</g>
<defs>
<clipPath id="clip0_3627_8951">
<rect width="38" height="38" fill="white" transform="translate(0 0.73877)"/>
</clipPath>
</defs>
</svg>
