<svg width="" height="" viewBox="0 0 27 27" fill="none" xmlns="http://www.w3.org/2000/svg">
<path d="M22.5 4.5H4.5C3.2625 4.5 2.25 5.5125 2.25 6.75V20.25C2.25 21.4875 3.2625 22.5 4.5 22.5H22.5C23.7375 22.5 24.75 21.4875 24.75 20.25V6.75C24.75 5.5125 23.7375 4.5 22.5 4.5ZM22.05 9.28125L14.6925 13.8825C13.9613 14.3438 13.0387 14.3438 12.3075 13.8825L4.95 9.28125C4.83719 9.21793 4.73841 9.13237 4.65962 9.02976C4.58084 8.92715 4.52369 8.80963 4.49165 8.68429C4.4596 8.55896 4.45332 8.42843 4.47318 8.3006C4.49304 8.17276 4.53863 8.05029 4.60719 7.94059C4.67576 7.83089 4.76586 7.73624 4.87207 7.66237C4.97827 7.5885 5.09836 7.53695 5.22506 7.51084C5.35176 7.48472 5.48244 7.48459 5.6092 7.51044C5.73595 7.5363 5.85615 7.5876 5.9625 7.66125L13.5 12.375L21.0375 7.66125C21.1439 7.5876 21.264 7.5363 21.3908 7.51044C21.5176 7.48459 21.6482 7.48472 21.7749 7.51084C21.9016 7.53695 22.0217 7.5885 22.1279 7.66237C22.2341 7.73624 22.3242 7.83089 22.3928 7.94059C22.4614 8.05029 22.507 8.17276 22.5268 8.3006C22.5467 8.42843 22.5404 8.55896 22.5084 8.68429C22.4763 8.80963 22.4192 8.92715 22.3404 9.02976C22.2616 9.13237 22.1628 9.21793 22.05 9.28125Z" fill="white"/>
</svg>
