<svg width="22" height="22" viewBox="0 0 22 22" fill="none" xmlns="http://www.w3.org/2000/svg">
<path d="M18 3.73877H4C3.0375 3.73877 2.25 4.52627 2.25 5.48877V15.9888C2.25 16.9513 3.0375 17.7388 4 17.7388H18C18.9625 17.7388 19.75 16.9513 19.75 15.9888V5.48877C19.75 4.52627 18.9625 3.73877 18 3.73877ZM17.65 7.45752L11.9275 11.0363C11.3588 11.395 10.6412 11.395 10.0725 11.0363L4.35 7.45752C4.26226 7.40827 4.18543 7.34172 4.12415 7.26192C4.06288 7.18211 4.01843 7.0907 3.9935 6.99322C3.96858 6.89574 3.96369 6.79421 3.97914 6.69479C3.99458 6.59536 4.03004 6.50011 4.08337 6.41478C4.1367 6.32946 4.20678 6.25584 4.28939 6.19839C4.37199 6.14094 4.46539 6.10084 4.56393 6.08053C4.66248 6.06022 4.76412 6.06012 4.86271 6.08022C4.9613 6.10033 5.05478 6.14024 5.1375 6.19752L11 9.86377L16.8625 6.19752C16.9452 6.14024 17.0387 6.10033 17.1373 6.08022C17.2359 6.06012 17.3375 6.06022 17.4361 6.08053C17.5346 6.10084 17.628 6.14094 17.7106 6.19839C17.7932 6.25584 17.8633 6.32946 17.9166 6.41478C17.97 6.50011 18.0054 6.59536 18.0209 6.69479C18.0363 6.79421 18.0314 6.89574 18.0065 6.99322C17.9816 7.0907 17.9371 7.18211 17.8758 7.26192C17.8146 7.34172 17.7377 7.40827 17.65 7.45752Z" fill="white"/>
</svg>
