<svg width="" height="" viewBox="0 0 34 34" fill="none" xmlns="http://www.w3.org/2000/svg">
<path d="M15.2826 28.0061L15.2819 28.0054C11.6241 24.6886 8.62823 21.9679 6.54094 19.4142C4.45914 16.8673 3.3335 14.5477 3.3335 12.0417C3.3335 7.9409 6.53738 4.75 10.6252 4.75C12.939 4.75 15.1681 5.82973 16.6207 7.52231L17.0002 7.96438L17.3796 7.52231C18.8323 5.82973 21.0613 4.75 23.3752 4.75C27.4629 4.75 30.6668 7.9409 30.6668 12.0417C30.6668 14.5477 29.5412 16.8673 27.4594 19.4142C25.3721 21.9679 22.3762 24.6886 18.7185 28.0054L18.7177 28.0061L17.0002 29.5697L15.2826 28.0061Z" stroke="#37C245"/>
</svg>
