<svg width="" height="" viewBox="0 0 1920 1815" fill="none" xmlns="http://www.w3.org/2000/svg">
<path d="M2490.94 945.49C2308.35 809.083 1923.12 584.282 1842.93 776.341C1808.87 852.484 1683.17 998.576 1452.85 973.792C1222.53 949.007 1161.73 1100.08 1160.12 1178.72" stroke="url(#paint0_linear_1074_11788)" stroke-opacity="0.7" stroke-width="3"/>
<path d="M2476.05 917.058C2293.46 780.65 1908.23 555.85 1828.03 747.908C1793.98 824.052 1668.28 970.144 1437.96 945.359C1207.64 920.575 1146.83 1071.65 1145.22 1150.29" stroke="url(#paint1_linear_1074_11788)" stroke-opacity="0.7" stroke-width="3"/>
<path d="M2461.16 888.625C2278.57 752.218 1893.34 527.417 1813.14 719.476C1779.08 795.62 1653.38 941.711 1423.06 916.927C1192.74 892.142 1131.94 1043.22 1130.33 1121.86" stroke="url(#paint2_linear_1074_11788)" stroke-opacity="0.7" stroke-width="3"/>
<path d="M2446.26 860.193C2263.67 723.785 1878.44 498.985 1798.25 691.043C1764.19 767.187 1638.49 913.279 1408.17 888.494C1177.85 863.71 1117.05 1014.79 1115.43 1093.42" stroke="url(#paint3_linear_1074_11788)" stroke-opacity="0.7" stroke-width="3"/>
<path d="M2431.37 831.761C2248.78 695.353 1863.55 470.552 1783.35 662.611C1749.29 738.755 1623.59 884.847 1393.27 860.062C1162.95 835.278 1102.15 986.355 1100.54 1064.99" stroke="url(#paint4_linear_1074_11788)" stroke-opacity="0.7" stroke-width="3"/>
<path d="M2416.47 803.328C2233.88 666.921 1848.65 442.12 1768.46 634.179C1734.4 710.322 1608.7 856.414 1378.38 831.63C1148.06 806.845 1087.26 957.923 1085.65 1036.56" stroke="url(#paint5_linear_1074_11788)" stroke-opacity="0.7" stroke-width="3"/>
<path d="M2401.58 774.896C2218.99 638.488 1833.76 413.688 1753.56 605.746C1719.5 681.89 1593.81 827.982 1363.49 803.197C1133.16 778.413 1072.36 929.49 1070.75 1008.13" stroke="url(#paint6_linear_1074_11788)" stroke-opacity="0.7" stroke-width="3"/>
<path d="M2386.68 746.463C2204.09 610.056 1818.86 385.255 1738.67 577.314C1704.61 653.458 1578.91 799.549 1348.59 774.765C1118.27 749.98 1057.47 901.058 1055.86 979.695" stroke="url(#paint7_linear_1074_11788)" stroke-opacity="0.7" stroke-width="3"/>
<path d="M2371.79 718.031C2189.2 581.623 1803.97 356.823 1723.77 548.881C1689.71 625.025 1564.02 771.117 1333.7 746.332C1103.38 721.548 1042.57 872.626 1040.96 951.262" stroke="url(#paint8_linear_1074_11788)" stroke-opacity="0.7" stroke-width="3"/>
<path d="M2356.89 689.599C2174.3 553.191 1789.07 328.39 1708.88 520.449C1674.82 596.593 1549.12 742.684 1318.8 717.9C1088.48 693.115 1027.68 844.193 1026.07 922.83" stroke="url(#paint9_linear_1074_11788)" stroke-opacity="0.7" stroke-width="3"/>
<path d="M2342 661.166C2159.41 524.759 1774.18 299.958 1693.98 492.016C1659.92 568.16 1534.23 714.252 1303.91 689.468C1073.59 664.683 1012.78 815.761 1011.17 894.398" stroke="url(#paint10_linear_1074_11788)" stroke-opacity="0.7" stroke-width="3"/>
<path d="M-528.285 870.029C-345.694 1006.44 39.5352 1231.24 119.731 1039.18C153.79 963.035 279.487 816.943 509.807 841.727C740.127 866.512 800.931 715.434 802.542 636.797" stroke="url(#paint11_linear_1074_11788)" stroke-opacity="0.7" stroke-width="3"/>
<path d="M-513.39 898.461C-330.8 1034.87 54.4297 1259.67 134.626 1067.61C168.685 991.467 294.382 845.375 524.702 870.16C755.022 894.944 815.825 743.867 817.437 665.23" stroke="url(#paint12_linear_1074_11788)" stroke-opacity="0.7" stroke-width="3"/>
<path d="M-498.495 926.894C-315.905 1063.3 69.3245 1288.1 149.521 1096.04C183.579 1019.9 309.277 873.808 539.597 898.592C769.917 923.377 830.72 772.299 832.332 693.662" stroke="url(#paint13_linear_1074_11788)" stroke-opacity="0.7" stroke-width="3"/>
<path d="M-483.601 955.326C-301.011 1091.73 84.2191 1316.53 164.415 1124.48C198.474 1048.33 324.171 902.24 554.491 927.025C784.811 951.809 845.614 800.731 847.226 722.094" stroke="url(#paint14_linear_1074_11788)" stroke-opacity="0.7" stroke-width="3"/>
<path d="M-468.706 983.758C-286.116 1120.17 99.1136 1344.97 179.31 1152.91C213.368 1076.76 339.066 930.672 569.386 955.457C799.706 980.242 860.509 829.164 862.121 750.527" stroke="url(#paint15_linear_1074_11788)" stroke-opacity="0.7" stroke-width="3"/>
<path d="M-453.812 1012.19C-271.221 1148.6 114.008 1373.4 194.204 1181.34C228.263 1105.2 353.96 959.105 584.28 983.889C814.6 1008.67 875.404 857.596 877.015 778.959" stroke="url(#paint16_linear_1074_11788)" stroke-opacity="0.7" stroke-width="3"/>
<path d="M-438.917 1040.62C-256.327 1177.03 128.903 1401.83 209.099 1209.77C243.158 1133.63 368.855 987.537 599.175 1012.32C829.495 1037.11 890.298 886.029 891.91 807.392" stroke="url(#paint17_linear_1074_11788)" stroke-opacity="0.7" stroke-width="3"/>
<path d="M-424.023 1069.06C-241.432 1205.46 143.797 1430.26 223.993 1238.21C258.052 1162.06 383.749 1015.97 614.069 1040.75C844.389 1065.54 905.193 914.461 906.804 835.824" stroke="url(#paint18_linear_1074_11788)" stroke-opacity="0.7" stroke-width="3"/>
<path d="M-409.128 1097.49C-226.538 1233.9 158.692 1458.7 238.888 1266.64C272.947 1190.49 398.644 1044.4 628.964 1069.19C859.284 1093.97 920.087 942.893 921.699 864.257" stroke="url(#paint19_linear_1074_11788)" stroke-opacity="0.7" stroke-width="3"/>
<path d="M-394.234 1125.92C-211.643 1262.33 173.586 1487.13 253.782 1295.07C287.841 1218.93 413.538 1072.83 643.858 1097.62C874.179 1122.4 934.982 971.326 936.593 892.689" stroke="url(#paint20_linear_1074_11788)" stroke-opacity="0.7" stroke-width="3"/>
<path d="M-379.339 1154.35C-196.749 1290.76 188.481 1515.56 268.677 1323.5C302.736 1247.36 428.433 1101.27 658.753 1126.05C889.073 1150.84 949.876 999.758 951.488 921.121" stroke="url(#paint21_linear_1074_11788)" stroke-opacity="0.7" stroke-width="3"/>
<g opacity="0.57">
<path d="M1195 1C1224.5 227 1331.9 659.9 1525.5 583.5C1603.83 554.833 1796.2 543.1 1939 725.5C2081.8 907.9 2232.5 846.167 2290 792.5" stroke="url(#paint22_linear_1074_11788)" stroke-opacity="0.7" stroke-width="3"/>
<path d="M1185 31.5C1214.5 257.5 1321.9 690.4 1515.5 614C1593.83 585.333 1786.2 573.6 1929 756C2071.8 938.4 2222.5 876.667 2280 823" stroke="url(#paint23_linear_1074_11788)" stroke-opacity="0.7" stroke-width="3"/>
<path d="M1175 62C1204.5 288 1311.9 720.9 1505.5 644.5C1583.83 615.833 1776.2 604.1 1919 786.5C2061.8 968.9 2212.5 907.167 2270 853.5" stroke="url(#paint24_linear_1074_11788)" stroke-opacity="0.7" stroke-width="3"/>
<path d="M1165 92.5C1194.5 318.5 1301.9 751.4 1495.5 675C1573.83 646.333 1766.2 634.6 1909 817C2051.8 999.4 2202.5 937.667 2260 884" stroke="url(#paint25_linear_1074_11788)" stroke-opacity="0.7" stroke-width="3"/>
<path d="M1155 123C1184.5 349 1291.9 781.9 1485.5 705.5C1563.83 676.833 1756.2 665.1 1899 847.5C2041.8 1029.9 2192.5 968.167 2250 914.5" stroke="url(#paint26_linear_1074_11788)" stroke-opacity="0.7" stroke-width="3"/>
<path d="M1145 153.5C1174.5 379.5 1281.9 812.4 1475.5 736C1553.83 707.333 1746.2 695.6 1889 878C2031.8 1060.4 2182.5 998.667 2240 945" stroke="url(#paint27_linear_1074_11788)" stroke-opacity="0.7" stroke-width="3"/>
<path d="M1135 184C1164.5 410 1271.9 842.9 1465.5 766.5C1543.83 737.833 1736.2 726.1 1879 908.5C2021.8 1090.9 2172.5 1029.17 2230 975.5" stroke="url(#paint28_linear_1074_11788)" stroke-opacity="0.7" stroke-width="3"/>
<path d="M1125 214.5C1154.5 440.5 1261.9 873.4 1455.5 797C1533.83 768.333 1726.2 756.6 1869 939C2011.8 1121.4 2162.5 1059.67 2220 1006" stroke="url(#paint29_linear_1074_11788)" stroke-opacity="0.7" stroke-width="3"/>
<path d="M1115 245C1144.5 471 1251.9 903.9 1445.5 827.5C1523.83 798.833 1716.2 787.1 1859 969.5C2001.8 1151.9 2152.5 1090.17 2210 1036.5" stroke="url(#paint30_linear_1074_11788)" stroke-opacity="0.7" stroke-width="3"/>
<path d="M1105 275.5C1134.5 501.5 1241.9 934.4 1435.5 858C1513.83 829.333 1706.2 817.6 1849 1000C1991.8 1182.4 2142.5 1120.67 2200 1067" stroke="url(#paint31_linear_1074_11788)" stroke-opacity="0.7" stroke-width="3"/>
<path d="M1095 306C1124.5 532 1231.9 964.9 1425.5 888.5C1503.83 859.833 1696.2 848.1 1839 1030.5C1981.8 1212.9 2132.5 1151.17 2190 1097.5" stroke="url(#paint32_linear_1074_11788)" stroke-opacity="0.7" stroke-width="3"/>
</g>
<g opacity="0.57">
<path d="M767.66 1814.52C738.16 1588.52 630.76 1155.62 437.16 1232.02C358.827 1260.69 166.46 1272.42 23.6602 1090.02C-119.14 907.619 -269.84 969.352 -327.34 1023.02" stroke="url(#paint33_linear_1074_11788)" stroke-opacity="0.7" stroke-width="3"/>
<path d="M777.66 1784.02C748.16 1558.02 640.76 1125.12 447.16 1201.52C368.827 1230.19 176.46 1241.92 33.6602 1059.52C-109.14 877.119 -259.84 938.852 -317.34 992.519" stroke="url(#paint34_linear_1074_11788)" stroke-opacity="0.7" stroke-width="3"/>
<path d="M787.66 1753.52C758.16 1527.52 650.76 1094.62 457.16 1171.02C378.827 1199.69 186.46 1211.42 43.6602 1029.02C-99.1398 846.619 -249.84 908.352 -307.34 962.019" stroke="url(#paint35_linear_1074_11788)" stroke-opacity="0.7" stroke-width="3"/>
<path d="M797.66 1723.02C768.16 1497.02 660.76 1064.12 467.16 1140.52C388.827 1169.19 196.46 1180.92 53.6602 998.519C-89.1398 816.119 -239.84 877.852 -297.34 931.519" stroke="url(#paint36_linear_1074_11788)" stroke-opacity="0.7" stroke-width="3"/>
<path d="M807.66 1692.52C778.16 1466.52 670.76 1033.62 477.16 1110.02C398.827 1138.69 206.46 1150.42 63.6602 968.019C-79.1398 785.619 -229.84 847.352 -287.34 901.019" stroke="url(#paint37_linear_1074_11788)" stroke-opacity="0.7" stroke-width="3"/>
<path d="M817.66 1662.02C788.16 1436.02 680.76 1003.12 487.16 1079.52C408.827 1108.19 216.46 1119.92 73.6602 937.519C-69.1398 755.119 -219.84 816.852 -277.34 870.519" stroke="url(#paint38_linear_1074_11788)" stroke-opacity="0.7" stroke-width="3"/>
<path d="M827.66 1631.52C798.16 1405.52 690.76 972.619 497.16 1049.02C418.827 1077.69 226.46 1089.42 83.6602 907.019C-59.1398 724.619 -209.84 786.352 -267.34 840.019" stroke="url(#paint39_linear_1074_11788)" stroke-opacity="0.7" stroke-width="3"/>
<path d="M837.66 1601.02C808.16 1375.02 700.76 942.119 507.16 1018.52C428.827 1047.19 236.46 1058.92 93.6602 876.519C-49.1398 694.119 -199.84 755.852 -257.34 809.519" stroke="url(#paint40_linear_1074_11788)" stroke-opacity="0.7" stroke-width="3"/>
<path d="M847.66 1570.52C818.16 1344.52 710.76 911.619 517.16 988.019C438.827 1016.69 246.46 1028.42 103.66 846.019C-39.1398 663.619 -189.84 725.352 -247.34 779.019" stroke="url(#paint41_linear_1074_11788)" stroke-opacity="0.7" stroke-width="3"/>
<path d="M857.66 1540.02C828.16 1314.02 720.76 881.119 527.16 957.519C448.827 986.186 256.46 997.919 113.66 815.519C-29.1398 633.119 -179.84 694.852 -237.34 748.519" stroke="url(#paint42_linear_1074_11788)" stroke-opacity="0.7" stroke-width="3"/>
<path d="M867.66 1509.52C838.16 1283.52 730.76 850.619 537.16 927.019C458.827 955.686 266.46 967.419 123.66 785.019C-19.1398 602.619 -169.84 664.352 -227.34 718.019" stroke="url(#paint43_linear_1074_11788)" stroke-opacity="0.7" stroke-width="3"/>
</g>
<defs>
<linearGradient id="paint0_linear_1074_11788" x1="2109.25" y1="1338" x2="1502.35" y2="747.839" gradientUnits="userSpaceOnUse">
<stop stop-color="#22782A"/>
<stop offset="0.93125" stop-color="#22782A" stop-opacity="0"/>
</linearGradient>
<linearGradient id="paint1_linear_1074_11788" x1="2094.36" y1="1309.57" x2="1487.46" y2="719.406" gradientUnits="userSpaceOnUse">
<stop stop-color="#22782A"/>
<stop offset="0.93125" stop-color="#22782A" stop-opacity="0"/>
</linearGradient>
<linearGradient id="paint2_linear_1074_11788" x1="2079.46" y1="1281.14" x2="1472.56" y2="690.974" gradientUnits="userSpaceOnUse">
<stop stop-color="#22782A"/>
<stop offset="0.93125" stop-color="#22782A" stop-opacity="0"/>
</linearGradient>
<linearGradient id="paint3_linear_1074_11788" x1="2064.57" y1="1252.71" x2="1457.67" y2="662.541" gradientUnits="userSpaceOnUse">
<stop stop-color="#22782A"/>
<stop offset="0.93125" stop-color="#22782A" stop-opacity="0"/>
</linearGradient>
<linearGradient id="paint4_linear_1074_11788" x1="2049.67" y1="1224.28" x2="1442.78" y2="634.109" gradientUnits="userSpaceOnUse">
<stop stop-color="#22782A"/>
<stop offset="0.93125" stop-color="#22782A" stop-opacity="0"/>
</linearGradient>
<linearGradient id="paint5_linear_1074_11788" x1="2034.78" y1="1195.84" x2="1427.88" y2="605.677" gradientUnits="userSpaceOnUse">
<stop stop-color="#22782A"/>
<stop offset="0.93125" stop-color="#22782A" stop-opacity="0"/>
</linearGradient>
<linearGradient id="paint6_linear_1074_11788" x1="2019.89" y1="1167.41" x2="1412.99" y2="577.244" gradientUnits="userSpaceOnUse">
<stop stop-color="#22782A"/>
<stop offset="0.93125" stop-color="#22782A" stop-opacity="0"/>
</linearGradient>
<linearGradient id="paint7_linear_1074_11788" x1="2004.99" y1="1138.98" x2="1398.09" y2="548.812" gradientUnits="userSpaceOnUse">
<stop stop-color="#22782A"/>
<stop offset="0.93125" stop-color="#22782A" stop-opacity="0"/>
</linearGradient>
<linearGradient id="paint8_linear_1074_11788" x1="1990.1" y1="1110.55" x2="1383.2" y2="520.379" gradientUnits="userSpaceOnUse">
<stop stop-color="#22782A"/>
<stop offset="0.93125" stop-color="#22782A" stop-opacity="0"/>
</linearGradient>
<linearGradient id="paint9_linear_1074_11788" x1="1975.2" y1="1082.11" x2="1368.3" y2="491.947" gradientUnits="userSpaceOnUse">
<stop stop-color="#22782A"/>
<stop offset="0.93125" stop-color="#22782A" stop-opacity="0"/>
</linearGradient>
<linearGradient id="paint10_linear_1074_11788" x1="1960.31" y1="1053.68" x2="1353.41" y2="463.515" gradientUnits="userSpaceOnUse">
<stop stop-color="#22782A"/>
<stop offset="0.93125" stop-color="#22782A" stop-opacity="0"/>
</linearGradient>
<linearGradient id="paint11_linear_1074_11788" x1="-146.593" y1="477.514" x2="460.307" y2="1067.68" gradientUnits="userSpaceOnUse">
<stop stop-color="#22782A"/>
<stop offset="0.93125" stop-color="#22782A" stop-opacity="0"/>
</linearGradient>
<linearGradient id="paint12_linear_1074_11788" x1="-131.698" y1="505.947" x2="475.201" y2="1096.11" gradientUnits="userSpaceOnUse">
<stop stop-color="#22782A"/>
<stop offset="0.93125" stop-color="#22782A" stop-opacity="0"/>
</linearGradient>
<linearGradient id="paint13_linear_1074_11788" x1="-116.804" y1="534.379" x2="490.096" y2="1124.55" gradientUnits="userSpaceOnUse">
<stop stop-color="#22782A"/>
<stop offset="0.93125" stop-color="#22782A" stop-opacity="0"/>
</linearGradient>
<linearGradient id="paint14_linear_1074_11788" x1="-101.909" y1="562.812" x2="504.991" y2="1152.98" gradientUnits="userSpaceOnUse">
<stop stop-color="#22782A"/>
<stop offset="0.93125" stop-color="#22782A" stop-opacity="0"/>
</linearGradient>
<linearGradient id="paint15_linear_1074_11788" x1="-87.0145" y1="591.244" x2="519.885" y2="1181.41" gradientUnits="userSpaceOnUse">
<stop stop-color="#22782A"/>
<stop offset="0.93125" stop-color="#22782A" stop-opacity="0"/>
</linearGradient>
<linearGradient id="paint16_linear_1074_11788" x1="-72.12" y1="619.676" x2="534.78" y2="1209.84" gradientUnits="userSpaceOnUse">
<stop stop-color="#22782A"/>
<stop offset="0.93125" stop-color="#22782A" stop-opacity="0"/>
</linearGradient>
<linearGradient id="paint17_linear_1074_11788" x1="-57.2254" y1="648.109" x2="549.674" y2="1238.27" gradientUnits="userSpaceOnUse">
<stop stop-color="#22782A"/>
<stop offset="0.93125" stop-color="#22782A" stop-opacity="0"/>
</linearGradient>
<linearGradient id="paint18_linear_1074_11788" x1="-42.3309" y1="676.541" x2="564.569" y2="1266.71" gradientUnits="userSpaceOnUse">
<stop stop-color="#22782A"/>
<stop offset="0.93125" stop-color="#22782A" stop-opacity="0"/>
</linearGradient>
<linearGradient id="paint19_linear_1074_11788" x1="-27.4364" y1="704.974" x2="579.463" y2="1295.14" gradientUnits="userSpaceOnUse">
<stop stop-color="#22782A"/>
<stop offset="0.93125" stop-color="#22782A" stop-opacity="0"/>
</linearGradient>
<linearGradient id="paint20_linear_1074_11788" x1="-12.5418" y1="733.406" x2="594.358" y2="1323.57" gradientUnits="userSpaceOnUse">
<stop stop-color="#22782A"/>
<stop offset="0.93125" stop-color="#22782A" stop-opacity="0"/>
</linearGradient>
<linearGradient id="paint21_linear_1074_11788" x1="2.35294" y1="761.838" x2="609.253" y2="1352" gradientUnits="userSpaceOnUse">
<stop stop-color="#22782A"/>
<stop offset="0.93125" stop-color="#22782A" stop-opacity="0"/>
</linearGradient>
<linearGradient id="paint22_linear_1074_11788" x1="1742.5" y1="1" x2="1742.5" y2="847.536" gradientUnits="userSpaceOnUse">
<stop offset="0.545833" stop-color="#22782A" stop-opacity="0.0958466"/>
<stop offset="1" stop-color="#22782A"/>
</linearGradient>
<linearGradient id="paint23_linear_1074_11788" x1="1732.5" y1="31.5" x2="1732.5" y2="878.036" gradientUnits="userSpaceOnUse">
<stop offset="0.545833" stop-color="#22782A" stop-opacity="0.0958466"/>
<stop offset="1" stop-color="#22782A"/>
</linearGradient>
<linearGradient id="paint24_linear_1074_11788" x1="1722.5" y1="62" x2="1722.5" y2="908.536" gradientUnits="userSpaceOnUse">
<stop offset="0.545833" stop-color="#22782A" stop-opacity="0.0958466"/>
<stop offset="1" stop-color="#22782A"/>
</linearGradient>
<linearGradient id="paint25_linear_1074_11788" x1="1712.5" y1="92.5" x2="1712.5" y2="939.036" gradientUnits="userSpaceOnUse">
<stop offset="0.545833" stop-color="#22782A" stop-opacity="0.0958466"/>
<stop offset="1" stop-color="#22782A"/>
</linearGradient>
<linearGradient id="paint26_linear_1074_11788" x1="1702.5" y1="123" x2="1702.5" y2="969.536" gradientUnits="userSpaceOnUse">
<stop offset="0.545833" stop-color="#22782A" stop-opacity="0.0958466"/>
<stop offset="1" stop-color="#22782A"/>
</linearGradient>
<linearGradient id="paint27_linear_1074_11788" x1="1692.5" y1="153.5" x2="1692.5" y2="1000.04" gradientUnits="userSpaceOnUse">
<stop offset="0.545833" stop-color="#22782A" stop-opacity="0.0958466"/>
<stop offset="1" stop-color="#22782A"/>
</linearGradient>
<linearGradient id="paint28_linear_1074_11788" x1="1682.5" y1="184" x2="1682.5" y2="1030.54" gradientUnits="userSpaceOnUse">
<stop offset="0.545833" stop-color="#22782A" stop-opacity="0.0958466"/>
<stop offset="1" stop-color="#22782A"/>
</linearGradient>
<linearGradient id="paint29_linear_1074_11788" x1="1672.5" y1="214.5" x2="1672.5" y2="1061.04" gradientUnits="userSpaceOnUse">
<stop offset="0.545833" stop-color="#22782A" stop-opacity="0.0958466"/>
<stop offset="1" stop-color="#22782A"/>
</linearGradient>
<linearGradient id="paint30_linear_1074_11788" x1="1662.5" y1="245" x2="1662.5" y2="1091.54" gradientUnits="userSpaceOnUse">
<stop offset="0.545833" stop-color="#22782A" stop-opacity="0.0958466"/>
<stop offset="1" stop-color="#22782A"/>
</linearGradient>
<linearGradient id="paint31_linear_1074_11788" x1="1652.5" y1="275.5" x2="1652.5" y2="1122.04" gradientUnits="userSpaceOnUse">
<stop offset="0.545833" stop-color="#22782A" stop-opacity="0.0958466"/>
<stop offset="1" stop-color="#22782A"/>
</linearGradient>
<linearGradient id="paint32_linear_1074_11788" x1="1642.5" y1="306" x2="1642.5" y2="1152.54" gradientUnits="userSpaceOnUse">
<stop offset="0.545833" stop-color="#22782A" stop-opacity="0.0958466"/>
<stop offset="1" stop-color="#22782A"/>
</linearGradient>
<linearGradient id="paint33_linear_1074_11788" x1="220.16" y1="1814.52" x2="220.16" y2="967.983" gradientUnits="userSpaceOnUse">
<stop offset="0.545833" stop-color="#22782A" stop-opacity="0.0958466"/>
<stop offset="1" stop-color="#22782A"/>
</linearGradient>
<linearGradient id="paint34_linear_1074_11788" x1="230.16" y1="1784.02" x2="230.16" y2="937.483" gradientUnits="userSpaceOnUse">
<stop offset="0.545833" stop-color="#22782A" stop-opacity="0.0958466"/>
<stop offset="1" stop-color="#22782A"/>
</linearGradient>
<linearGradient id="paint35_linear_1074_11788" x1="240.16" y1="1753.52" x2="240.16" y2="906.983" gradientUnits="userSpaceOnUse">
<stop offset="0.545833" stop-color="#22782A" stop-opacity="0.0958466"/>
<stop offset="1" stop-color="#22782A"/>
</linearGradient>
<linearGradient id="paint36_linear_1074_11788" x1="250.16" y1="1723.02" x2="250.16" y2="876.483" gradientUnits="userSpaceOnUse">
<stop offset="0.545833" stop-color="#22782A" stop-opacity="0.0958466"/>
<stop offset="1" stop-color="#22782A"/>
</linearGradient>
<linearGradient id="paint37_linear_1074_11788" x1="260.16" y1="1692.52" x2="260.16" y2="845.983" gradientUnits="userSpaceOnUse">
<stop offset="0.545833" stop-color="#22782A" stop-opacity="0.0958466"/>
<stop offset="1" stop-color="#22782A"/>
</linearGradient>
<linearGradient id="paint38_linear_1074_11788" x1="270.16" y1="1662.02" x2="270.16" y2="815.483" gradientUnits="userSpaceOnUse">
<stop offset="0.545833" stop-color="#22782A" stop-opacity="0.0958466"/>
<stop offset="1" stop-color="#22782A"/>
</linearGradient>
<linearGradient id="paint39_linear_1074_11788" x1="280.16" y1="1631.52" x2="280.16" y2="784.983" gradientUnits="userSpaceOnUse">
<stop offset="0.545833" stop-color="#22782A" stop-opacity="0.0958466"/>
<stop offset="1" stop-color="#22782A"/>
</linearGradient>
<linearGradient id="paint40_linear_1074_11788" x1="290.16" y1="1601.02" x2="290.16" y2="754.483" gradientUnits="userSpaceOnUse">
<stop offset="0.545833" stop-color="#22782A" stop-opacity="0.0958466"/>
<stop offset="1" stop-color="#22782A"/>
</linearGradient>
<linearGradient id="paint41_linear_1074_11788" x1="300.16" y1="1570.52" x2="300.16" y2="723.983" gradientUnits="userSpaceOnUse">
<stop offset="0.545833" stop-color="#22782A" stop-opacity="0.0958466"/>
<stop offset="1" stop-color="#22782A"/>
</linearGradient>
<linearGradient id="paint42_linear_1074_11788" x1="310.16" y1="1540.02" x2="310.16" y2="693.483" gradientUnits="userSpaceOnUse">
<stop offset="0.545833" stop-color="#22782A" stop-opacity="0.0958466"/>
<stop offset="1" stop-color="#22782A"/>
</linearGradient>
<linearGradient id="paint43_linear_1074_11788" x1="320.16" y1="1509.52" x2="320.16" y2="662.983" gradientUnits="userSpaceOnUse">
<stop offset="0.545833" stop-color="#22782A" stop-opacity="0.0958466"/>
<stop offset="1" stop-color="#22782A"/>
</linearGradient>
</defs>
</svg>
