<svg width="" height="" viewBox="0 0 27 28" fill="none" xmlns="http://www.w3.org/2000/svg">
<g clip-path="url(#clip0_3570_7922)">
<path d="M13.5 27.5C13.5 27.5 23.625 17.9049 23.625 10.625C23.625 7.93968 22.5583 5.36435 20.6595 3.46554C18.7606 1.56674 16.1853 0.5 13.5 0.5C10.8147 0.5 8.23935 1.56674 6.34054 3.46554C4.44174 5.36435 3.375 7.93968 3.375 10.625C3.375 17.9049 13.5 27.5 13.5 27.5ZM13.5 15.6875C12.1573 15.6875 10.8697 15.1541 9.92027 14.2047C8.97087 13.2553 8.4375 11.9677 8.4375 10.625C8.4375 9.28234 8.97087 7.99468 9.92027 7.04527C10.8697 6.09587 12.1573 5.5625 13.5 5.5625C14.8427 5.5625 16.1303 6.09587 17.0797 7.04527C18.0291 7.99468 18.5625 9.28234 18.5625 10.625C18.5625 11.9677 18.0291 13.2553 17.0797 14.2047C16.1303 15.1541 14.8427 15.6875 13.5 15.6875Z" fill="#E2E2E2"/>
</g>
<defs>
<clipPath id="clip0_3570_7922">
<rect width="27" height="27" fill="white" transform="translate(0 0.5)"/>
</clipPath>
</defs>
</svg>
