<svg width="" height="" viewBox="0 0 229 54" fill="none" xmlns="http://www.w3.org/2000/svg">
<g filter="url(#filter0_d_3502_15821)">
<path d="M18.1079 20.3549L22.2634 15.9685V37.9256C22.2634 38.2941 21.9646 38.5929 21.5961 38.5929H18.7752C18.4067 38.5929 18.1079 38.2941 18.1079 37.9256V20.3549Z" fill="#CBCBCB"/>
<path d="M37.0405 9.73535L41.196 14.1217V38.1565C41.196 38.5251 40.8973 38.8239 40.5287 38.8239H37.7079C37.3393 38.8239 37.0405 38.5251 37.0405 38.1565V9.73535Z" fill="#3BD14A"/>
<path d="M42.5808 20.8167L42.5809 15.2761L51.2133 23.9085C51.464 24.1592 51.4749 24.5622 51.2381 24.8261L49.5103 26.7514C49.2547 27.0363 48.8124 27.0482 48.5418 26.7776L42.5808 20.8167Z" fill="#3BD14A"/>
<path d="M35.1944 21.2785L35.193 15.2762L26.456 23.5774C26.184 23.8358 26.1784 24.2676 26.4437 24.5329L28.7188 26.809C28.9793 27.0696 29.4019 27.0697 29.6626 26.8091L35.1944 21.2785Z" fill="#3BD14A"/>
<path d="M37.0405 6.96501L41.196 11.1206V1.06545C41.196 0.69689 40.8973 0.398114 40.5287 0.398114H37.7079C37.3393 0.398114 37.0405 0.696891 37.0405 1.06545L37.0405 6.96501Z" fill="#3BD14A"/>
<path d="M24.8048 3.26498L30.1835 3.76309L8.59144 25.3552C8.33083 25.6158 7.9083 25.6158 7.64769 25.3551L5.65306 23.3605C5.39245 23.0999 5.39245 22.6774 5.65306 22.4168L24.8048 3.26498Z" fill="#3BD14A"/>
<path d="M27.4346 0.527588L24.5741 3.50218L35.1937 13.8909L35.1955 8.35027L27.4346 0.527588Z" fill="#3BD14A"/>
<path d="M24.5732 14.0588L27.5116 11.1205L30.45 14.0588L27.9835 16.5253C27.7229 16.786 27.3004 16.786 27.0397 16.5253L24.5732 14.0588Z" fill="#3BD14A"/>
<path d="M27.3442 30.7186C27.3442 30.35 27.643 30.0513 28.0116 30.0513H30.8324C31.201 30.0513 31.4997 30.35 31.4997 30.7186V38.1567C31.4997 38.5252 31.201 38.824 30.8324 38.824H28.0116C27.643 38.824 27.3442 38.5252 27.3442 38.1567V30.7186Z" fill="#CBCBCB"/>
<path d="M64.218 38.6431H61.978C61.474 38.6431 61.138 38.3071 61.138 37.8031V19.8548C61.138 19.3507 61.474 19.0147 61.978 19.0147H76.5382C77.0423 19.0147 77.3783 19.3507 77.3783 19.8548V22.0948C77.3783 22.5988 77.0423 22.9348 76.5382 22.9348H65.0581V37.8031C65.0581 38.3071 64.722 38.6431 64.218 38.6431ZM75.4462 30.7749H67.2981C66.7941 30.7749 66.4581 30.4389 66.4581 29.9349V27.6949C66.4581 27.1909 66.7941 26.8549 67.2981 26.8549H75.4462C75.9502 26.8549 76.2862 27.1909 76.2862 27.6949V29.9349C76.2862 30.4389 75.9502 30.7749 75.4462 30.7749ZM80.6618 37.8031V19.8548C80.6618 19.3507 80.9978 19.0147 81.5018 19.0147H83.7418C84.2458 19.0147 84.5818 19.3507 84.5818 19.8548V37.8031C84.5818 38.3071 84.2458 38.6431 83.7418 38.6431H81.5018C80.9978 38.6431 80.6618 38.3071 80.6618 37.8031ZM100.144 26.7429L99.1359 25.5668C98.7999 25.1748 98.7999 24.6708 99.1359 24.2788L103.364 19.4067C103.56 19.1547 103.924 19.0147 104.232 19.0147H106.64C108.012 19.0147 108.32 19.6867 107.424 20.7228L102.16 26.7429C101.852 27.0789 101.516 27.2749 101.152 27.2749C100.816 27.2749 100.452 27.0789 100.144 26.7429ZM103.364 38.2511L88.1318 20.7228C87.2357 19.6867 87.5437 19.0147 88.9158 19.0147H91.3238C91.6318 19.0147 91.9958 19.1547 92.1918 19.4067L107.424 36.935C108.32 37.9711 108.012 38.6431 106.64 38.6431H104.232C103.924 38.6431 103.56 38.5031 103.364 38.2511ZM95.5239 30.8869L96.5319 32.091C96.8679 32.483 96.8679 32.987 96.5319 33.379L92.2758 38.2511C92.0798 38.5031 91.7158 38.6431 91.4078 38.6431H88.9998C87.6277 38.6431 87.3197 37.9711 88.2158 36.935L93.5078 30.8869C93.8158 30.5229 94.1799 30.3549 94.5159 30.3549C94.8799 30.3549 95.2159 30.5229 95.5239 30.8869ZM111.014 37.8031V19.8548C111.014 19.3507 111.35 19.0147 111.854 19.0147H114.094C114.598 19.0147 114.934 19.3507 114.934 19.8548V37.8031C114.934 38.3071 114.598 38.6431 114.094 38.6431H111.854C111.35 38.6431 111.014 38.3071 111.014 37.8031Z" fill="#CBCBCB"/>
<path d="M133.8 37.8031V19.8548C133.8 19.3507 134.136 19.0147 134.64 19.0147H136.88C137.384 19.0147 137.72 19.3507 137.72 19.8548V37.8031C137.72 38.3071 137.384 38.6431 136.88 38.6431H134.64C134.136 38.6431 133.8 38.3071 133.8 37.8031ZM119.436 37.8031V19.8548C119.436 19.3507 119.772 19.0147 120.276 19.0147H122.516C123.02 19.0147 123.356 19.3507 123.356 19.8548V26.8549H131.56C132.064 26.8549 132.4 27.1909 132.4 27.6949V29.9349C132.4 30.4389 132.064 30.7749 131.56 30.7749H123.356V37.8031C123.356 38.3071 123.02 38.6431 122.516 38.6431H120.276C119.772 38.6431 119.436 38.3071 119.436 37.8031ZM140.673 37.439L148.597 19.7707C148.793 19.3227 149.269 19.0147 149.773 19.0147H152.405C152.909 19.0147 153.385 19.3227 153.581 19.7707L161.477 37.439C161.785 38.1671 161.477 38.6431 160.665 38.6431H158.537C158.033 38.6431 157.557 38.3351 157.361 37.8871L151.089 23.8028L144.789 37.8871C144.593 38.3351 144.089 38.6431 143.585 38.6431H141.457C140.673 38.6431 140.365 38.1671 140.673 37.439ZM153.721 38.6431H148.401C147.897 38.6431 147.561 38.3071 147.561 37.8031V35.563C147.561 35.059 147.897 34.723 148.401 34.723H153.721C154.225 34.723 154.561 35.059 154.561 35.563V37.8031C154.561 38.3071 154.225 38.6431 153.721 38.6431ZM178.854 19.0427H181.094C181.598 19.0427 181.934 19.3787 181.934 19.8828V32.651C181.934 36.263 179.526 38.6711 175.914 38.6711H169.558C165.945 38.6711 163.537 36.263 163.537 32.651V19.8548C163.537 19.3507 163.873 19.0147 164.377 19.0147H166.618C167.122 19.0147 167.458 19.3507 167.458 19.8548V31.867C167.458 33.603 168.606 34.751 170.342 34.751H175.13C176.866 34.751 178.014 33.603 178.014 31.867V19.8828C178.014 19.3787 178.35 19.0427 178.854 19.0427ZM196.99 30.7749H191.306C187.806 30.7749 185.482 28.4509 185.482 24.9508V24.8388C185.482 21.3388 187.806 19.0147 191.306 19.0147H201.442C201.946 19.0147 202.282 19.3507 202.282 19.8548V22.0948C202.282 22.5988 201.946 22.9348 201.442 22.9348H191.334C190.158 22.9348 189.402 23.7188 189.402 24.9228C189.402 26.0989 190.158 26.8549 191.334 26.8549H197.018C200.518 26.8549 202.842 29.1789 202.842 32.819C202.842 36.319 200.518 38.6431 197.018 38.6431H186.882C186.378 38.6431 186.042 38.3071 186.042 37.8031V35.563C186.042 35.059 186.378 34.723 186.882 34.723H196.99C198.166 34.723 198.922 33.939 198.922 32.735C198.922 31.5589 198.166 30.7749 196.99 30.7749Z" fill="#3BD14A"/>
</g>
<defs>
<filter id="filter0_d_3502_15821" x="-4" y="0.398193" width="237" height="61.2036" filterUnits="userSpaceOnUse" color-interpolation-filters="sRGB">
<feFlood flood-opacity="0" result="BackgroundImageFix"/>
<feColorMatrix in="SourceAlpha" type="matrix" values="0 0 0 0 0 0 0 0 0 0 0 0 0 0 0 0 0 0 127 0" result="hardAlpha"/>
<feOffset dy="4"/>
<feGaussianBlur stdDeviation="2"/>
<feComposite in2="hardAlpha" operator="out"/>
<feColorMatrix type="matrix" values="0 0 0 0 0 0 0 0 0 0 0 0 0 0 0 0 0 0 0.25 0"/>
<feBlend mode="normal" in2="BackgroundImageFix" result="effect1_dropShadow_3502_15821"/>
<feBlend mode="normal" in="SourceGraphic" in2="effect1_dropShadow_3502_15821" result="shape"/>
</filter>
</defs>
</svg>
