<svg width="" height="" viewBox="0 0 22 22" fill="none" xmlns="http://www.w3.org/2000/svg">
<path d="M17.4648 13.8525L15.2423 13.5988C14.981 13.5681 14.7161 13.597 14.4676 13.6834C14.219 13.7698 13.9933 13.9114 13.8073 14.0975L12.1973 15.7075C9.71338 14.4442 7.69439 12.4252 6.43109 9.94129L8.04984 8.32254C8.42609 7.94629 8.60984 7.42129 8.54859 6.88754L8.29484 4.68254C8.24523 4.25569 8.04038 3.862 7.71929 3.57641C7.39821 3.29082 6.9833 3.13328 6.55359 3.13379H5.03984C4.05109 3.13379 3.22859 3.95629 3.28984 4.94504C3.75359 12.4175 9.72984 18.385 17.1936 18.8488C18.1823 18.91 19.0048 18.0875 19.0048 17.0988V15.585C19.0136 14.7013 18.3486 13.9575 17.4648 13.8525Z" fill="white"/>
</svg>
