<svg width="" height="" viewBox="0 0 117 229" fill="none" xmlns="http://www.w3.org/2000/svg">
<path d="M50.376 67.344V65.004H60.816C61.848 65.004 62.364 64.488 62.364 63.456V59.676C62.364 58.644 61.848 58.128 60.816 58.128H53.04V54.132H60.816C61.848 54.132 62.364 53.604 62.364 52.548V49.704C62.364 48.672 61.848 48.156 60.816 48.156H50.736V45.816L52.86 44.16H60.924C64.836 44.16 66.792 46.116 66.792 50.028V52.44C66.792 53.4 66.492 54.18 65.892 54.78L64.632 56.04L65.892 57.3C66.492 57.9 66.792 58.68 66.792 59.64V63.132C66.792 67.044 64.836 69 60.924 69H52.5L50.376 67.344Z" fill="white"/>
<circle cx="58.5" cy="58.5" r="57.5" stroke="#37C245" stroke-width="2" stroke-dasharray="20 20"/>
<rect x="58" y="117" width="2" height="112" fill="#37C245"/>
</svg>
