<svg width="" height="" viewBox="0 0 117 229" fill="none" xmlns="http://www.w3.org/2000/svg">
<circle cx="58.5" cy="58.5" r="57.5" stroke="#37C245" stroke-width="2" stroke-dasharray="20 20"/>
<rect x="58" y="117" width="2" height="112" fill="#37C245"/>
<path d="M50.016 69V61.116C50.016 57.924 51.42 56.04 54.228 55.464L61.14 54.06C61.956 53.892 62.364 53.352 62.364 52.44V49.704C62.364 48.672 61.848 48.156 60.816 48.156H50.736V45.816L52.86 44.16H60.924C64.836 44.16 66.792 46.116 66.792 50.028V52.332C66.792 55.524 65.388 57.408 62.58 57.984L55.668 59.388C54.852 59.556 54.444 60.096 54.444 61.008V65.004H66.792V69H50.016Z" fill="white"/>
</svg>
