<svg width="" height="" viewBox="0 0 20 20" fill="none" xmlns="http://www.w3.org/2000/svg">
<path d="M12.8677 19.632C12.1424 19.632 11.6091 19.312 11.2677 18.672C10.8837 18.0747 10.8624 17.4347 11.2037 16.752C11.9717 15.0453 12.4411 13.616 12.6117 12.464C12.7824 11.3547 12.8037 10.3947 12.6757 9.584C12.5051 8.77334 12.3131 7.984 12.0997 7.216C11.8864 6.49067 11.7797 5.65867 11.7797 4.72C11.7797 3.65334 12.1637 2.736 12.9317 1.968C13.6997 1.24267 14.6171 0.880001 15.6837 0.880001C17.0064 0.880001 18.0304 1.43467 18.7557 2.544C19.4811 3.65333 19.8437 5.04 19.8437 6.704C19.8437 7.81334 19.6091 9.09334 19.1397 10.544C18.6704 11.9947 18.0944 13.4027 17.4117 14.768C16.6864 16.176 15.9184 17.328 15.1077 18.224C14.2971 19.1627 13.5504 19.632 12.8677 19.632ZM3.01175 19.632C2.28642 19.632 1.75308 19.312 1.41175 18.672C1.02775 18.0747 1.00642 17.4347 1.34775 16.752C2.11575 15.0453 2.58508 13.616 2.75575 12.464C2.92642 11.3547 2.94775 10.3947 2.81975 9.584C2.64908 8.77334 2.45708 7.984 2.24375 7.216C2.03042 6.49067 1.92375 5.65867 1.92375 4.72C1.92375 3.65334 2.30775 2.736 3.07575 1.968C3.84375 1.24267 4.76108 0.880001 5.82775 0.880001C7.15042 0.880001 8.17442 1.43467 8.89975 2.544C9.62508 3.65333 9.98775 5.04 9.98775 6.704C9.98775 7.81334 9.75308 9.09334 9.28375 10.544C8.81442 11.9947 8.23842 13.4027 7.55575 14.768C6.83042 16.176 6.06242 17.328 5.25175 18.224C4.44108 19.1627 3.69442 19.632 3.01175 19.632Z" fill="#37C245"/>
</svg>
