<svg width="" height="" viewBox="0 0 54 54" fill="none" xmlns="http://www.w3.org/2000/svg">
<path d="M24.6437 38.0061L24.643 38.0054C20.9853 34.6886 17.9894 31.9679 15.9021 29.4142C13.8203 26.8673 12.6947 24.5477 12.6947 22.0417C12.6947 17.9409 15.8985 14.75 19.9863 14.75C22.3002 14.75 24.5292 15.8297 25.9819 17.5223L26.3613 17.9644L26.7407 17.5223C28.1934 15.8297 30.4225 14.75 32.7363 14.75C36.8241 14.75 40.028 17.9409 40.028 22.0417C40.028 24.5477 38.9023 26.8673 36.8205 29.4142C34.7333 31.9679 31.7374 34.6886 28.0796 38.0054L28.0789 38.0061L26.3613 39.5697L24.6437 38.0061Z" stroke="#37C245"/>
</svg>
